# File created by Blade
# Date/Time:  Wed Apr 08 17:31:39 2015
# Frame Rate: 120.000 fps
#------------------------------------------------------
:FULLY-SPECIFIED
:DEGREES
736
root -0.481749 22.515180 0.696800 -739.258397 -58.159909 565.362094
Spine 198.791797 -14.420711 -7.563933
Head 15.149549 4.486468 4.790142
LeftShoulder -7.691015 25.296168 23.970081
LeftArm 17.506644 9.755329 -83.671266
LeftForeArm 17.066530 -0.000000 41.342617
LeftHand -13.187835 -0.000000 1.571584
LeftHandThumb1 -26.253704 0.000000 33.147579
RightShoulder -23.159220 -51.267171 -10.987557
RightArm 58.039453 -6.870601 38.533651
RightForeArm 2.986827 -0.000000 33.703956
RightHand 4.392587 -0.000000 2.744969
RightHandThumb1 -24.326973 -0.000000 -32.862282
LeftUpLeg 132.545168 -24.222418 -25.589450
LeftLeg 125.518195 -0.000000 -0.000000
LeftFoot -30.049261 3.115174 -16.774617
LeftToeBase -27.070769 -0.000000 0.000000
RightUpLeg 121.123911 29.986318 1.191513
RightLeg 108.450612 -0.000000 -0.000000
RightFoot -36.374320 33.770162 -8.808970
RightToeBase 0.317088 -0.000000 -0.000000
737
root -0.479080 22.522110 0.699749 -739.182169 -58.011181 565.287275
Spine 198.915022 -14.464394 -7.566189
Head 15.199267 4.286957 4.777789
LeftShoulder -7.755291 25.325935 23.910718
LeftArm 17.550247 9.698024 -83.672850
LeftForeArm 17.010623 -0.000000 41.468744
LeftHand -13.150302 0.000000 1.490517
LeftHandThumb1 -26.253704 0.000000 33.147579
RightShoulder -23.259658 -51.224168 -10.877430
RightArm 58.040579 -6.889223 38.401715
RightForeArm 2.957711 -0.000000 33.579008
RightHand 4.460334 0.000000 2.720781
RightHandThumb1 -24.326973 -0.000000 -32.862282
LeftUpLeg 132.640988 -24.334371 -25.606717
LeftLeg 125.488409 -0.000000 -0.000000
LeftFoot -30.100078 3.149676 -16.791245
LeftToeBase -26.952131 -0.000000 0.000000
RightUpLeg 121.114302 30.213738 1.093723
RightLeg 108.344546 -0.000000 -0.000000
RightFoot -36.441573 33.943085 -9.025412
RightToeBase 0.598724 -0.000000 -0.000000
738
root -0.478616 22.529812 0.698288 -739.063135 -57.888908 565.229632
Spine 198.980415 -14.500464 -7.551508
Head 15.232099 4.100169 4.757114
LeftShoulder -7.810909 25.329756 23.855466
LeftArm 17.581350 9.666845 -83.656050
LeftForeArm 16.897608 -0.000000 41.577378
LeftHand -13.143975 -0.000000 1.565727
LeftHandThumb1 -26.253704 0.000000 33.147579
RightShoulder -23.408307 -51.218938 -10.718351
RightArm 58.067274 -6.859099 38.305576
RightForeArm 2.761437 -0.000000 33.443959
RightHand 4.468978 0.000000 2.567044
RightHandThumb1 -24.326973 -0.000000 -32.862282
LeftUpLeg 132.670983 -24.436178 -25.601689
LeftLeg 125.438070 -0.000000 -0.000000
LeftFoot -30.141156 3.186461 -16.845808
LeftToeBase -26.917250 -0.000000 0.000000
RightUpLeg 121.072852 30.434131 0.990056
RightLeg 108.249977 -0.000000 -0.000000
RightFoot -36.531234 34.165379 -9.218650
RightToeBase 0.889784 -0.000000 -0.000000
739
root -0.475020 22.535440 0.697658 -739.032222 -57.798400 565.218843
Spine 199.080483 -14.498394 -7.558065
Head 15.285792 3.933940 4.776771
LeftShoulder -7.834338 25.308151 23.829876
LeftArm 17.571213 9.636732 -83.653871
LeftForeArm 16.810483 -0.000000 41.668512
LeftHand -13.086166 -0.000000 1.519995
LeftHandThumb1 -26.253704 0.000000 33.147579
RightShoulder -23.533520 -51.197778 -10.584904
RightArm 58.071221 -6.864424 38.253900
RightForeArm 2.824120 -0.000000 33.302622
RightHand 4.358214 -0.000000 2.397938
RightHandThumb1 -24.326973 -0.000000 -32.862282
LeftUpLeg 132.705656 -24.461226 -25.614671
LeftLeg 125.414518 -0.000000 -0.000000
LeftFoot -30.186540 3.250359 -16.839538
LeftToeBase -26.718275 -0.000000 0.000000
RightUpLeg 121.074431 30.688449 0.880433
RightLeg 108.158622 -0.000000 -0.000000
RightFoot -36.636848 34.329083 -9.400644
RightToeBase 1.168501 -0.000000 -0.000000
740
root -0.479181 22.542690 0.690620 -738.782196 -57.694926 565.097486
Spine 199.058577 -14.535496 -7.493751
Head 15.353771 3.771803 4.751407
LeftShoulder -7.840114 25.319565 23.789428
LeftArm 17.576568 9.556781 -83.676293
LeftForeArm 16.694156 0.000000 41.772948
LeftHand -13.117621 -0.000000 1.454272
LeftHandThumb1 -26.253704 0.000000 33.147579
RightShoulder -23.667591 -51.229384 -10.435424
RightArm 58.080375 -6.822266 38.219267
RightForeArm 2.915152 -0.000000 33.167344
RightHand 4.454359 -0.000000 2.402930
RightHandThumb1 -24.326973 -0.000000 -32.862282
LeftUpLeg 132.679965 -24.578120 -25.551704
LeftLeg 125.365749 -0.000000 -0.000000
LeftFoot -30.232676 3.304736 -16.842256
LeftToeBase -26.616286 -0.000000 0.000000
RightUpLeg 120.944037 30.889865 0.739683
RightLeg 108.090086 -0.000000 -0.000000
RightFoot -36.809504 34.384488 -9.657107
RightToeBase 1.470512 -0.000000 -0.000000
741
root -0.483242 22.548558 0.684745 -738.580199 -57.588066 565.022720
Spine 199.045526 -14.571822 -7.452551
Head 15.414499 3.647648 4.751485
LeftShoulder -7.849978 25.337060 23.759229
LeftArm 17.578820 9.481404 -83.697236
LeftForeArm 16.635141 -0.000000 41.873963
LeftHand -12.915718 -0.000000 1.294953
LeftHandThumb1 -26.253704 0.000000 33.147579
RightShoulder -23.770935 -51.224142 -10.325090
RightArm 58.055539 -6.807421 38.253955
RightForeArm 2.964032 0.000000 33.023634
RightHand 4.353106 0.000000 2.458306
RightHandThumb1 -24.326973 -0.000000 -32.862282
LeftUpLeg 132.652997 -24.685645 -25.516759
LeftLeg 125.330782 -0.000000 -0.000000
LeftFoot -30.270825 3.365526 -16.802991
LeftToeBase -26.447422 -0.000000 0.000000
RightUpLeg 120.824094 31.090457 0.583456
RightLeg 108.016359 -0.000000 -0.000000
RightFoot -36.960470 34.449862 -9.907635
RightToeBase 1.582330 -0.000000 -0.000000
742
root -0.485445 22.552228 0.682561 -738.453279 -57.492891 564.960642
Spine 199.078119 -14.567799 -7.430319
Head 15.476011 3.529871 4.754164
LeftShoulder -7.876242 25.375847 23.713229
LeftArm 17.602846 9.447144 -83.703534
LeftForeArm 16.568936 -0.000000 41.932708
LeftHand -13.056175 -0.000000 1.231353
LeftHandThumb1 -26.253704 0.000000 33.147579
RightShoulder -23.890548 -51.265824 -10.193183
RightArm 58.029815 -6.763190 38.287574
RightForeArm 3.125686 0.000000 32.952308
RightHand 4.409556 -0.000000 2.194698
RightHandThumb1 -24.326973 -0.000000 -32.862282
LeftUpLeg 132.652706 -24.730179 -25.484839
LeftLeg 125.312728 -0.000000 -0.000000
LeftFoot -30.321039 3.481379 -16.770318
LeftToeBase -26.259689 -0.000000 0.000000
RightUpLeg 120.771791 31.276411 0.484075
RightLeg 107.951363 -0.000000 -0.000000
RightFoot -37.069554 34.613636 -10.023752
RightToeBase 1.950615 -0.000000 -0.000000
743
root -0.490172 22.555194 0.680206 -738.325558 -57.405569 564.940993
Spine 199.070684 -14.561737 -7.420471
Head 15.539003 3.420613 4.762251
LeftShoulder -7.875470 25.386944 23.690209
LeftArm 17.607052 9.427302 -83.718847
LeftForeArm 16.526146 0.000000 41.953742
LeftHand -13.044071 -0.000000 1.235650
LeftHandThumb1 -26.253704 0.000000 33.147579
RightShoulder -24.022187 -51.304275 -10.062513
RightArm 58.004994 -6.702892 38.392427
RightForeArm 3.149239 -0.000000 32.836931
RightHand 4.558736 -0.000000 2.430251
RightHandThumb1 -24.326973 -0.000000 -32.862282
LeftUpLeg 132.592150 -24.792856 -25.429670
LeftLeg 125.306010 -0.000000 -0.000000
LeftFoot -30.374442 3.693550 -16.700107
LeftToeBase -26.000269 -0.000000 0.000000
RightUpLeg 120.656460 31.501108 0.269108
RightLeg 107.884610 -0.000000 -0.000000
RightFoot -37.327399 34.357859 -10.454631
RightToeBase 1.910945 -0.000000 -0.000000
744
root -0.492717 22.556719 0.680345 -738.247209 -57.309169 564.936728
Spine 199.094143 -14.540290 -7.425453
Head 15.597995 3.317014 4.775392
LeftShoulder -7.885384 25.424742 23.666001
LeftArm 17.627084 9.404515 -83.741187
LeftForeArm 16.484262 -0.000000 41.958814
LeftHand -13.068839 -0.000000 1.255713
LeftHandThumb1 -26.253704 0.000000 33.147579
RightShoulder -24.137078 -51.341345 -9.932004
RightArm 57.962140 -6.658435 38.469092
RightForeArm 3.344316 -0.000000 32.795054
RightHand 4.508177 0.000000 2.295615
RightHandThumb1 -24.326973 -0.000000 -32.862282
LeftUpLeg 132.542403 -24.829459 -25.375301
LeftLeg 125.308958 -0.000000 -0.000000
LeftFoot -30.439067 3.960093 -16.643254
LeftToeBase -25.756419 -0.000000 0.000000
RightUpLeg 120.600928 31.666977 0.147572
RightLeg 107.806639 -0.000000 -0.000000
RightFoot -37.423353 34.540607 -10.506571
RightToeBase 2.348436 -0.000000 -0.000000
745
root -0.494745 22.557323 0.680488 -738.157376 -57.189563 564.917753
Spine 199.118745 -14.534789 -7.426619
Head 15.638093 3.222308 4.789545
LeftShoulder -7.930446 25.453307 23.631254
LeftArm 17.629967 9.435759 -83.727841
LeftForeArm 16.372166 -0.000000 41.969465
LeftHand -12.993376 -0.000000 1.303272
LeftHandThumb1 -26.253704 0.000000 33.147579
RightShoulder -24.277259 -51.378091 -9.773623
RightArm 57.920190 -6.583163 38.514005
RightForeArm 3.419372 -0.000000 32.766499
RightHand 4.531078 -0.000000 2.455068
RightHandThumb1 -24.326973 -0.000000 -32.862282
LeftUpLeg 132.505762 -24.903801 -25.313426
LeftLeg 125.319780 -0.000000 -0.000000
LeftFoot -30.553004 4.304542 -16.520019
LeftToeBase -25.375375 -0.000000 0.000000
RightUpLeg 120.548617 31.746664 0.048479
RightLeg 107.727890 -0.000000 -0.000000
RightFoot -37.499680 34.762748 -10.499378
RightToeBase 2.778634 -0.000000 -0.000000
